<svg width="168" height="44" viewBox="0 0 168 44" fill="none" xmlns="http://www.w3.org/2000/svg">
<ellipse cx="22.5065" cy="22.1859" rx="21.5709" ry="21.5709" fill="#F5F5F5"/>
<g clip-path="url(#clip0_0_162)">
<path d="M30.4816 15.1773C30.0395 15.048 19.2264 13.9714 15.429 19.1019C13.7471 21.3747 13.7218 24.4903 15.3447 28.3615C14.933 29.216 14.5726 30.1161 14.2789 31.0658C14.1896 31.3544 14.3512 31.6604 14.6394 31.7494C14.6932 31.7661 14.7476 31.7739 14.8013 31.7739C15.0344 31.7739 15.2507 31.6234 15.323 31.3889C18.2173 22.0314 27.6233 17.5044 30.5078 16.3608C30.7885 16.2494 31.1636 15.377 30.4816 15.1773Z" fill="#84829A"/>
<path d="M17.0804 29.5333C18.646 30.1901 20.2114 30.5267 21.667 30.5267C22.9754 30.5267 24.1956 30.2577 25.2471 29.7122C27.3632 28.6144 28.6564 26.5146 28.9866 23.6391C29.323 20.7085 29.7418 18.8729 30.0912 17.75C26.9811 19.1847 20.3123 22.9034 17.0804 29.5333Z" fill="#84829A"/>
</g>
<ellipse cx="145.94" cy="22.1859" rx="21.5709" ry="21.5709" fill="#F5F5F5"/>
<path d="M152.344 16.4843L144.773 24.0831C144.686 24.0328 144.595 23.9907 144.5 23.9573L139.502 22.2655C139.351 22.2277 139.217 22.1404 139.121 22.0175C139.025 21.8946 138.973 21.7433 138.973 21.5875C138.973 21.4316 139.025 21.2803 139.121 21.1574C139.217 21.0346 139.351 20.9473 139.502 20.9094L151.903 16.4983C151.984 16.4708 152.069 16.4566 152.155 16.4564C152.219 16.4553 152.283 16.4648 152.344 16.4843Z" fill="#84829A"/>
<path d="M152.826 17.4221L148.415 29.8374C148.366 29.982 148.272 30.1068 148.145 30.1927C148.019 30.2785 147.868 30.3207 147.716 30.3127C147.562 30.3198 147.41 30.2756 147.283 30.1871C147.157 30.0986 147.063 29.9707 147.017 29.8234L145.353 24.8251C145.32 24.7305 145.278 24.6393 145.227 24.5525L152.84 16.9817C152.883 17.1262 152.878 17.2806 152.826 17.4221Z" fill="#84829A"/>
<ellipse cx="87.2197" cy="22.1859" rx="21.5709" ry="21.5709" fill="#F5F5F5"/>
<g clip-path="url(#clip1_0_162)">
<path d="M93.8119 13.7974C93.7188 13.7973 93.627 13.819 93.5438 13.8606L89.0032 16.1315L83.8688 13.8492C83.8604 13.8456 83.8508 13.845 83.8418 13.8414C83.8187 13.8328 83.7951 13.8256 83.7711 13.8198C83.7473 13.8134 83.723 13.8084 83.6986 13.8048C83.6499 13.8008 83.601 13.8008 83.5524 13.8048C83.528 13.8084 83.5038 13.8134 83.4799 13.8198C83.4559 13.8256 83.4323 13.8328 83.4092 13.8414C83.4002 13.845 83.3906 13.8456 83.3822 13.8492L77.9896 16.2459C77.7731 16.3421 77.6336 16.5567 77.6337 16.7935V29.9756C77.6338 30.1783 77.7363 30.3672 77.9063 30.4777C78.0763 30.5884 78.2907 30.6055 78.4761 30.5232L83.6255 28.2343L88.7749 30.5232C88.7838 30.5268 88.7934 30.5232 88.8024 30.5286C88.9475 30.5935 89.114 30.5898 89.256 30.5185C89.2656 30.5143 89.2763 30.5185 89.2859 30.5119L94.0794 28.1151C94.2825 28.0136 94.4108 27.806 94.4107 27.5788V14.3968C94.4109 14.0659 94.1428 13.7975 93.8119 13.7974ZM83.0263 27.1894L78.832 29.0534V17.183L83.0263 15.319V27.1894ZM88.419 29.0534L84.2247 27.1894V15.319L88.419 17.183V29.0534ZM93.2124 27.2085L89.6173 29.0061V17.1638L93.2124 15.3663V27.2085Z" fill="#84829A"/>
</g>
<defs>
<clipPath id="clip0_0_162">
<rect width="16.7774" height="16.7774" fill="white" transform="translate(14.118 14.9958)"/>
</clipPath>
<clipPath id="clip1_0_162">
<rect width="16.7774" height="16.7774" fill="white" transform="translate(77.6324 13.7959)"/>
</clipPath>
</defs>
</svg>
