<svg width="263" height="87" viewBox="0 0 263 87" fill="none" xmlns="http://www.w3.org/2000/svg">
<g filter="url(#filter0_d_0_282)">
<path fill-rule="evenodd" clip-rule="evenodd" d="M222.421 68.1971C237.481 68.1971 249.689 55.989 249.689 40.9296C249.689 25.8702 237.481 13.6621 222.421 13.6621C207.362 13.6621 195.154 25.8702 195.154 40.9296C195.154 55.989 207.362 68.1971 222.421 68.1971Z" fill="white"/>
</g>
<path d="M236.245 34.3303C235.451 34.6774 234.606 34.9075 233.725 35.0193C234.631 34.4792 235.323 33.6306 235.649 32.6078C234.803 33.1105 233.87 33.4657 232.875 33.6639C232.073 32.8113 230.929 32.2832 229.681 32.2832C227.259 32.2832 225.31 34.2438 225.31 36.6473C225.31 36.9932 225.339 37.3257 225.411 37.6423C221.775 37.4654 218.558 35.7269 216.397 33.0786C216.019 33.7317 215.798 34.4792 215.798 35.284C215.798 36.795 216.578 38.1344 217.741 38.9099C217.038 38.8966 216.349 38.6931 215.765 38.3725C215.765 38.3858 215.765 38.4031 215.765 38.4204C215.765 40.5406 217.281 42.3017 219.269 42.7074C218.913 42.8045 218.525 42.851 218.122 42.851C217.842 42.851 217.559 42.8351 217.294 42.7765C217.861 44.5044 219.469 45.7746 221.381 45.8159C219.893 46.9771 218.003 47.6767 215.958 47.6767C215.599 47.6767 215.255 47.6607 214.911 47.6168C216.849 48.8632 219.145 49.5748 221.621 49.5748C229.669 49.5748 234.069 42.9242 234.069 37.1594C234.069 36.9666 234.062 36.7803 234.053 36.5955C234.921 35.9809 235.65 35.2135 236.245 34.3303Z" fill="#080809"/>
<g filter="url(#filter1_d_0_282)">
<path fill-rule="evenodd" clip-rule="evenodd" d="M41.5249 65.535C56.5844 65.535 68.7924 53.3269 68.7924 38.2675C68.7924 23.2081 56.5844 11 41.5249 11C26.4655 11 14.2574 23.2081 14.2574 38.2675C14.2574 53.3269 26.4655 65.535 41.5249 65.535Z" fill="white"/>
</g>
<path fill-rule="evenodd" clip-rule="evenodd" d="M44.9945 35.2686C44.5688 35.1339 44.0792 35.0441 43.6322 35.0441C43.0788 35.0441 41.8867 35.4257 41.8867 36.1665V37.9398H44.7178V40.9252H41.8867V49.1631H39.0344V40.9252H37.6295V37.9398H39.0344V36.4358C39.0344 34.1687 40.0136 32.2832 42.3763 32.2832C43.1852 32.2832 44.6326 32.3281 45.4202 32.6199L44.9945 35.2686Z" fill="#080809"/>
<g filter="url(#filter2_d_0_282)">
<path fill-rule="evenodd" clip-rule="evenodd" d="M131.973 70.8555C148.502 70.8555 161.901 57.4564 161.901 40.9277C161.901 24.3991 148.502 11 131.973 11C115.445 11 102.045 24.3991 102.045 40.9277C102.045 57.4564 115.445 70.8555 131.973 70.8555Z" fill="url(#paint0_angular_0_282)"/>
</g>
<g clip-path="url(#clip0_0_282)">
<path d="M140.162 29.6196H125.115C123.396 29.6196 121.998 31.0183 121.998 32.7371V47.7841C121.998 49.5033 123.396 50.9016 125.115 50.9016H140.162C141.881 50.9016 143.28 49.5033 143.28 47.7841V32.7371C143.28 31.0183 141.881 29.6196 140.162 29.6196ZM142.033 47.7841C142.033 48.8154 141.193 49.6546 140.162 49.6546H125.115C124.084 49.6546 123.245 48.8154 123.245 47.7841V32.7371C123.245 31.7058 124.084 30.8666 125.115 30.8666H140.162C141.193 30.8666 142.033 31.7058 142.033 32.7371V47.7841Z" fill="white"/>
<path d="M139.497 32.1558C138.809 32.1558 138.25 32.7152 138.25 33.4028C138.25 34.0903 138.809 34.6497 139.497 34.6497C140.184 34.6497 140.744 34.0903 140.744 33.4028C140.744 32.7152 140.184 32.1558 139.497 32.1558Z" fill="white"/>
<path d="M132.638 34.6509C129.544 34.6509 127.027 37.1681 127.027 40.2623C127.027 43.3565 129.544 45.8738 132.638 45.8738C135.733 45.8738 138.25 43.3565 138.25 40.2623C138.25 37.1681 135.733 34.6509 132.638 34.6509ZM132.638 44.6268C130.232 44.6268 128.274 42.669 128.274 40.2623C128.274 37.8556 130.232 35.8979 132.638 35.8979C135.045 35.8979 137.003 37.8556 137.003 40.2623C137.003 42.669 135.045 44.6268 132.638 44.6268Z" fill="white"/>
</g>
<defs>
<filter id="filter0_d_0_282" x="181.853" y="3.02114" width="81.1375" height="81.1376" filterUnits="userSpaceOnUse" color-interpolation-filters="sRGB">
<feFlood flood-opacity="0" result="BackgroundImageFix"/>
<feColorMatrix in="SourceAlpha" type="matrix" values="0 0 0 0 0 0 0 0 0 0 0 0 0 0 0 0 0 0 127 0" result="hardAlpha"/>
<feOffset dy="2.66024"/>
<feGaussianBlur stdDeviation="6.65061"/>
<feColorMatrix type="matrix" values="0 0 0 0 0 0 0 0 0 0 0 0 0 0 0 0 0 0 0.1 0"/>
<feBlend mode="normal" in2="BackgroundImageFix" result="effect1_dropShadow_0_282"/>
<feBlend mode="normal" in="SourceGraphic" in2="effect1_dropShadow_0_282" result="shape"/>
</filter>
<filter id="filter1_d_0_282" x="0.956231" y="0.359028" width="81.1375" height="81.1376" filterUnits="userSpaceOnUse" color-interpolation-filters="sRGB">
<feFlood flood-opacity="0" result="BackgroundImageFix"/>
<feColorMatrix in="SourceAlpha" type="matrix" values="0 0 0 0 0 0 0 0 0 0 0 0 0 0 0 0 0 0 127 0" result="hardAlpha"/>
<feOffset dy="2.66024"/>
<feGaussianBlur stdDeviation="6.65061"/>
<feColorMatrix type="matrix" values="0 0 0 0 0 0 0 0 0 0 0 0 0 0 0 0 0 0 0.1 0"/>
<feBlend mode="normal" in2="BackgroundImageFix" result="effect1_dropShadow_0_282"/>
<feBlend mode="normal" in="SourceGraphic" in2="effect1_dropShadow_0_282" result="shape"/>
</filter>
<filter id="filter2_d_0_282" x="88.7442" y="0.359028" width="86.4579" height="86.4579" filterUnits="userSpaceOnUse" color-interpolation-filters="sRGB">
<feFlood flood-opacity="0" result="BackgroundImageFix"/>
<feColorMatrix in="SourceAlpha" type="matrix" values="0 0 0 0 0 0 0 0 0 0 0 0 0 0 0 0 0 0 127 0" result="hardAlpha"/>
<feOffset dy="2.66024"/>
<feGaussianBlur stdDeviation="6.65061"/>
<feColorMatrix type="matrix" values="0 0 0 0 0 0 0 0 0 0 0 0 0 0 0 0 0 0 0.1 0"/>
<feBlend mode="normal" in2="BackgroundImageFix" result="effect1_dropShadow_0_282"/>
<feBlend mode="normal" in="SourceGraphic" in2="effect1_dropShadow_0_282" result="shape"/>
</filter>
<radialGradient id="paint0_angular_0_282" cx="0" cy="0" r="1" gradientUnits="userSpaceOnUse" gradientTransform="translate(131.973 40.9277) rotate(90) scale(0.665061)">
<stop stop-color="#B8D2F1"/>
<stop offset="0.166667" stop-color="#F289AA"/>
<stop offset="0.294697" stop-color="#C68BF0"/>
<stop offset="0.427083" stop-color="#D164DA"/>
<stop offset="0.614583" stop-color="#C963E8"/>
<stop offset="0.71875" stop-color="#BFC2E8"/>
<stop offset="0.802083" stop-color="#FFC999"/>
<stop offset="0.875" stop-color="#D0D8C9"/>
<stop offset="0.928149" stop-color="#BAD0F1"/>
<stop offset="0.997133" stop-color="#CED8CB"/>
<stop offset="1" stop-color="white" stop-opacity="0"/>
</radialGradient>
<clipPath id="clip0_0_282">
<rect width="21.2819" height="21.2819" fill="white" transform="translate(121.997 29.6216)"/>
</clipPath>
</defs>
</svg>
